<?xml version="1.0" encoding="UTF-8"?>
<svg id="Layer_2" data-name="Layer 2" xmlns="http://www.w3.org/2000/svg" viewBox="0 0 266.37 47.66">
  <defs>
    <style>
      .cls-1 {
        fill: #2fa84e;
      }

      .cls-2 {
        fill: #1f2528;
      }
    </style>
  </defs>
  <g id="Logo_Redesign_2026" data-name="Logo Redesign 2026">
    <g>
      <g>
        <g>
          <path class="cls-2" d="M65.31,36.04V14.84h-3.03v-3.62h3.03v-2.09c0-2.38.22-4.24.67-5.56.45-1.32,1.17-2.25,2.16-2.78.99-.53,2.32-.79,3.97-.79.43,0,.99.02,1.69.05.7.03,1.38.08,2.06.15.68.07,1.15.13,1.42.2l-.05,3.47c-.6-.03-1.3-.06-2.11-.07-.81-.02-1.48-.02-2.01-.02-.89,0-1.6.15-2.11.45-.51.3-.88.84-1.09,1.64-.22.79-.32,1.89-.32,3.28v2.09h7v3.62h-7v21.2h-4.27Z"/>
          <path class="cls-2" d="M86.41,36.54c-2.35,0-4.13-.65-5.34-1.94-1.21-1.29-1.81-3.19-1.81-5.71,0-1.65.29-3,.87-4.02.58-1.03,1.46-1.8,2.63-2.33,1.17-.53,2.61-.86,4.29-.99l7.45-.74v-2.04c0-1.62-.36-2.76-1.09-3.43-.73-.66-1.79-.99-3.18-.99-.86,0-1.86.03-3,.1s-2.28.15-3.43.25c-1.14.1-2.14.2-3,.3l-.2-3.18c.79-.16,1.76-.33,2.9-.5,1.14-.17,2.33-.31,3.57-.42,1.24-.12,2.37-.17,3.4-.17,1.92,0,3.49.28,4.72.84,1.22.56,2.13,1.43,2.71,2.61.58,1.18.87,2.69.87,4.54v12.41c.07.69.35,1.2.84,1.51.5.31,1.12.52,1.89.62l-.15,3.28c-.46,0-.92-.02-1.37-.05-.45-.03-.87-.08-1.27-.15-.4-.07-.76-.15-1.09-.25-.5-.17-.94-.37-1.34-.62-.4-.25-.78-.54-1.14-.87-.63.27-1.42.55-2.38.84-.96.3-1.99.55-3.08.77-1.09.21-2.18.32-3.28.32ZM87.15,33.06c.86,0,1.75-.07,2.68-.22.93-.15,1.8-.34,2.63-.57.83-.23,1.51-.45,2.04-.65v-7.74l-6.9.65c-1.42.13-2.45.55-3.08,1.27-.63.71-.94,1.71-.94,3s.31,2.37.92,3.13c.61.76,1.5,1.14,2.66,1.14Z"/>
          <path class="cls-2" d="M113.81,36.54c-.79,0-1.75-.05-2.85-.15-1.11-.1-2.19-.22-3.25-.37-1.06-.15-2-.29-2.83-.42l.25-3.57c.83.1,1.76.22,2.81.35,1.04.13,2.06.24,3.05.32.99.08,1.8.12,2.43.12,1.29,0,2.37-.12,3.23-.35.86-.23,1.51-.63,1.96-1.19.45-.56.67-1.37.67-2.43,0-.79-.17-1.41-.52-1.84-.35-.43-.98-.79-1.89-1.09-.91-.3-2.24-.56-4-.79-1.85-.3-3.4-.68-4.64-1.14-1.24-.46-2.15-1.14-2.73-2.04-.58-.89-.87-2.17-.87-3.82,0-1.89.43-3.37,1.29-4.44.86-1.08,1.99-1.84,3.38-2.28,1.39-.45,2.85-.67,4.37-.67.96,0,2,.05,3.13.15,1.12.1,2.22.22,3.28.37,1.06.15,1.97.29,2.73.42l-.1,3.57c-.79-.13-1.73-.26-2.81-.37-1.08-.12-2.14-.21-3.2-.3-1.06-.08-1.99-.12-2.78-.12-.96,0-1.82.1-2.58.3-.76.2-1.37.55-1.81,1.07-.45.51-.67,1.22-.67,2.11,0,.69.17,1.26.5,1.69.33.43.94.79,1.84,1.07.89.28,2.2.57,3.92.87,2.05.33,3.7.74,4.94,1.24,1.24.5,2.14,1.2,2.71,2.11.56.91.84,2.18.84,3.8,0,1.92-.4,3.46-1.19,4.62-.79,1.16-1.91,1.99-3.35,2.48-1.44.5-3.19.74-5.24.74Z"/>
          <path class="cls-2" d="M137.3,36.59c-1.72,0-3.09-.26-4.12-.79-1.03-.53-1.76-1.45-2.21-2.76-.45-1.31-.67-3.15-.67-5.54v-12.66h-3.43v-3.62h3.43V3.77h4.22v7.45h7.6v3.62h-7.6v11.47c0,1.69.07,3,.22,3.95.15.94.46,1.61.94,1.99.48.38,1.23.57,2.26.57.33,0,.75-.02,1.27-.05.51-.03,1.04-.07,1.59-.12s1.02-.09,1.42-.12l.25,3.53c-.46.07-1.02.14-1.66.22s-1.28.16-1.91.22c-.63.07-1.16.1-1.59.1Z"/>
          <path class="cls-2" d="M150.3,36.04l-5.71-24.82h4.32l4.62,21.2h.84l5.56-20.7h4.32l5.61,20.7h.84l4.62-21.2h4.27l-5.71,24.82h-6.9l-4.92-18.77-4.92,18.77h-6.85Z"/>
          <path class="cls-2" d="M193.25,36.54c-2.52,0-4.5-.48-5.96-1.44-1.46-.96-2.51-2.38-3.15-4.27-.65-1.89-.97-4.24-.97-7.05,0-3.11.43-5.63,1.29-7.55.86-1.92,2.08-3.32,3.65-4.2,1.57-.88,3.45-1.32,5.63-1.32,3.38,0,5.92.92,7.62,2.76,1.7,1.84,2.56,4.77,2.56,8.81l-.2,3.08h-16.23c.03,2.45.5,4.31,1.39,5.59.89,1.27,2.51,1.91,4.87,1.91.93,0,1.95-.02,3.08-.07,1.12-.05,2.24-.11,3.35-.17,1.11-.07,2.04-.13,2.81-.2l.1,3.28c-.79.13-1.77.27-2.93.4-1.16.13-2.34.24-3.55.32-1.21.08-2.33.12-3.35.12ZM187.49,22.04h12.16c0-2.91-.46-4.96-1.39-6.13-.93-1.17-2.43-1.76-4.52-1.76-1.36,0-2.49.27-3.4.79-.91.53-1.61,1.37-2.11,2.53-.5,1.16-.74,2.68-.74,4.57Z"/>
          <rect class="cls-2" x="209.48" y="11.22" width="4.17" height="24.82"/>
          <path class="cls-2" d="M230.33,47.66c-2.58,0-4.67-.22-6.26-.65-1.59-.43-2.76-1.19-3.5-2.28-.74-1.09-1.12-2.58-1.12-4.47,0-.96.15-1.78.45-2.46.3-.68.73-1.31,1.29-1.89.56-.58,1.27-1.18,2.13-1.81-.43-.33-.77-.8-1.02-1.42-.25-.61-.37-1.3-.37-2.06,0-.23.09-.58.27-1.04.18-.46.41-.95.7-1.46.28-.51.54-.98.77-1.42-.69-.33-1.33-.79-1.91-1.36-.58-.58-1.05-1.36-1.42-2.36-.36-.99-.55-2.25-.55-3.77,0-2.05.39-3.7,1.17-4.94.78-1.24,1.88-2.14,3.3-2.71,1.42-.56,3.08-.84,4.96-.84.89,0,1.84.07,2.83.2.99.13,1.77.27,2.33.4l7.5-.15v3.43l-4.57-.1c.46.46.84,1.07,1.14,1.81.3.74.45,1.71.45,2.9,0,2.18-.36,3.89-1.09,5.11-.73,1.22-1.81,2.09-3.25,2.58s-3.25.74-5.44.74c-.23,0-.62-.02-1.17-.07-.55-.05-.95-.09-1.22-.12-.17.43-.35.94-.55,1.51-.2.58-.3.97-.3,1.17,0,.5.06.88.17,1.14.12.26.37.48.77.65.4.17.99.27,1.79.32.79.05,1.89.07,3.28.07,2.35,0,4.24.2,5.66.6,1.42.4,2.44,1.12,3.05,2.16.61,1.04.92,2.56.92,4.54,0,2.85-.99,4.9-2.95,6.16-1.97,1.26-4.73,1.89-8.27,1.89ZM230.33,44.18c2.42,0,4.19-.34,5.31-1.02,1.12-.68,1.69-1.78,1.69-3.3,0-1.16-.19-2.01-.57-2.56-.38-.55-1-.91-1.86-1.09-.86-.18-2.02-.27-3.48-.27-.33,0-.75,0-1.27-.02-.51-.02-1.04-.03-1.59-.05-.55-.02-1.04-.04-1.49-.07-.45-.03-.75-.05-.92-.05-.63.46-1.14.89-1.54,1.29-.4.4-.67.81-.82,1.24-.15.43-.22.96-.22,1.59,0,1.03.19,1.85.57,2.48.38.63,1.07,1.09,2.06,1.39.99.3,2.37.45,4.12.45ZM229.24,24.33c1.99,0,3.39-.39,4.22-1.17.83-.78,1.24-2.09,1.24-3.95s-.41-3.18-1.24-3.97c-.83-.79-2.23-1.19-4.22-1.19-1.85,0-3.19.4-4,1.19-.81.79-1.22,2.12-1.22,3.97s.4,3.17,1.22,3.95c.81.78,2.14,1.17,4,1.17Z"/>
          <path class="cls-2" d="M246.27,36.04V.5h4.17v12.01c.6-.26,1.32-.54,2.16-.82.84-.28,1.74-.51,2.68-.7.94-.18,1.83-.27,2.66-.27,1.72,0,3.14.22,4.25.67,1.11.45,1.97,1.16,2.58,2.13.61.98,1.03,2.23,1.27,3.77.23,1.54.35,3.4.35,5.59v13.16h-4.22v-12.96c0-2.09-.12-3.76-.37-5.01-.25-1.26-.72-2.17-1.42-2.73-.69-.56-1.79-.84-3.28-.84-.79,0-1.61.07-2.46.22s-1.63.33-2.36.55c-.73.22-1.34.42-1.84.62v20.16h-4.17Z"/>
        </g>
        <rect class="cls-1" x="209.48" y="3.77" width="4.17" height="4.46" rx=".53" ry=".53"/>
      </g>
      <g>
        <path class="cls-1" d="M9.87,18.9h27.64v5.91c0,2.61-2.12,4.73-4.73,4.73H9.87v-10.64h0Z" transform="translate(24.06 -9.66) rotate(45)"/>
        <path class="cls-2" d="M22.66,13.81h37.28v5.91c0,2.61-2.12,4.73-4.73,4.73H17.93v-5.91c0-2.61,2.12-4.73,4.73-4.73Z" transform="translate(24.93 -21.92) rotate(45)"/>
        <path class="cls-2" d="M1.81,23.98h13.3v5.91c0,2.61-2.12,4.73-4.73,4.73H1.81v-10.64h0Z" transform="translate(23.2 2.6) rotate(45)"/>
      </g>
    </g>
  </g>
</svg>